HIERARCHY
ROOT Pelvis
{
	OFFSET 0.000000 0.000000 0.000000
	CHANNELS 6 Xposition Yposition Zposition Xrotation Yrotation Zrotation
	JOINT LeftUpLeg_virtual
	{
		OFFSET 0.000000 0.000000 0.000000
		CHANNELS 3 Xrotation Yrotation Zrotation
		JOINT LeftUpLeg
		{
			OFFSET 18.735201 -5.666702 -4.541200
			CHANNELS 3 Xrotation Yrotation Zrotation
			JOINT LeftLeg
			{
				OFFSET -0.021200 -31.938179 0.493100
				CHANNELS 3 Xrotation Yrotation Zrotation
				JOINT LeftFoot
				{
					OFFSET 0.021200 -31.938179 -4.336299
					CHANNELS 3 Xrotation Yrotation Zrotation
					JOINT LeftToeBase
					{
						OFFSET 0.943001 -26.722000 15.023500
						CHANNELS 3 Xrotation Yrotation Zrotation
						End Site
						{
							OFFSET 0 0 0
						}
					}
				}
			}
		}
	}
	JOINT RightUpLeg_virtual
	{
		OFFSET 0.000000 0.000000 0.000000
		CHANNELS 3 Xrotation Yrotation Zrotation
		JOINT RightUpLeg
		{
			OFFSET -18.735201 -5.666702 -4.541200
			CHANNELS 3 Xrotation Yrotation Zrotation
			JOINT RightLeg
			{
				OFFSET 0.018946 -31.938133 0.493100
				CHANNELS 3 Xrotation Yrotation Zrotation
				JOINT RightFoot
				{
					OFFSET -0.018946 -31.938126 -4.336299
					CHANNELS 3 Xrotation Yrotation Zrotation
					JOINT RightToeBase
					{
						OFFSET -0.943001 -26.722004 15.023500
						CHANNELS 3 Xrotation Yrotation Zrotation
						End Site
						{
							OFFSET 0 0 0
						}
					}
				}
			}
		}
	}
	JOINT Hips_virtual
	{
		OFFSET 0.000000 0.000000 0.000000
		CHANNELS 3 Xrotation Yrotation Zrotation
		JOINT Hips
		{
			OFFSET -0.000000 -0.000000 -0.000000
			CHANNELS 3 Xrotation Yrotation Zrotation
			JOINT Spine
			{
				OFFSET 0.000000 10.199997 -0.299500
				CHANNELS 3 Xrotation Yrotation Zrotation
				JOINT Spine1
				{
					OFFSET 0.000000 11.900002 -1.516600
					CHANNELS 3 Xrotation Yrotation Zrotation
					JOINT Spine2
					{
						OFFSET 0.000000 13.600006 -2.842500
						CHANNELS 3 Xrotation Yrotation Zrotation
						JOINT Neck_virtual
						{
							OFFSET 0.000000 0.000000 0.000000
							CHANNELS 3 Xrotation Yrotation Zrotation
							JOINT Neck
							{
								OFFSET 0.000000 9.624100 -2.890100
								CHANNELS 3 Xrotation Yrotation Zrotation
								JOINT Head
								{
									OFFSET 0.000000 14.068802 -1.351900
									CHANNELS 3 Xrotation Yrotation Zrotation
									End Site
									{
										OFFSET 0 0 0
									}
								}
							}
						}
						JOINT LeftShoulder_virtual
						{
							OFFSET 0.000000 0.000000 0.000000
							CHANNELS 3 Xrotation Yrotation Zrotation
							JOINT LeftShoulder
							{
								OFFSET 15.263000 10.923401 -0.547700
								CHANNELS 3 Xrotation Yrotation Zrotation
								JOINT LeftArm
								{
									OFFSET 25.438599 -2.830597 -13.032500
									CHANNELS 3 Xrotation Yrotation Zrotation
									JOINT LeftForeArm
									{
										OFFSET 29.960503 0.000000 0.000000
										CHANNELS 3 Xrotation Yrotation Zrotation
										JOINT LeftHand
										{
											OFFSET 27.849251 0.000000 0.000000
											CHANNELS 3 Xrotation Yrotation Zrotation
											End Site
											{
												OFFSET 0 0 0
											}
										}
									}
								}
							}
						}
						JOINT RightShoulder_virtual
						{
							OFFSET 0.000000 0.000000 0.000000
							CHANNELS 3 Xrotation Yrotation Zrotation
							JOINT RightShoulder
							{
								OFFSET -15.263000 10.923401 -0.547700
								CHANNELS 3 Xrotation Yrotation Zrotation
								JOINT RightArm
								{
									OFFSET -25.438599 -2.830597 -13.032500
									CHANNELS 3 Xrotation Yrotation Zrotation
									JOINT RightForeArm
									{
										OFFSET -29.960503 0.000000 0.000000
										CHANNELS 3 Xrotation Yrotation Zrotation
										JOINT RightHand
										{
											OFFSET -27.849251 0.000000 0.000000
											CHANNELS 3 Xrotation Yrotation Zrotation
											End Site
											{
												OFFSET 0 0 0
											}
										}
									}
								}
							}
						}
					}
				}
			}
		}
	}
}
MOTION
Frames: 13
Frame Time: 0.03333333
-4.469698 92.213623 7.896141 0.000000 0.000000 0.000000 -4.568928 -26.446755 -1.558518 -24.460521 21.894521 29.127707 29.554003 -6.984537 -8.902455 10.841731 -7.117021 -5.481701 0.000000 0.000000 0.000000 -6.399768 -24.780754 -2.450545 -22.111272 -8.164952 1.244095 34.461716 -4.078691 1.527862 16.360272 -3.088466 -7.750632 0.000000 0.000000 0.000000 -6.023657 -24.411803 -1.964430 -0.917880 0.055997 -0.031698 8.077651 -5.118220 -1.886135 -4.171887 5.759317 -0.379832 0.000000 0.000000 0.000000 -9.335561 1.760070 1.130100 5.297459 -2.519268 -1.191505 0.000000 0.000000 0.000000 -12.112281 1.589451 2.508313 7.893937 -2.137320 -14.192792 18.319045 -32.376845 -33.822865 -16.673320 -25.806579 -24.526653 0.000000 0.000000 0.000000 -5.512944 1.112602 0.042974 7.355180 21.262075 -4.143389 11.438985 -9.408571 93.401457 6.004149 21.045280 -7.749497 0.000000 0.000000 0.000000 
-4.320229 92.019371 8.513145 0.000000 0.000000 0.000000 -4.419802 -27.547603 -1.985599 -24.492558 21.916346 29.685027 30.547509 -7.276540 -8.585883 9.465605 -6.729598 -6.838420 0.000000 0.000000 0.000000 -6.168334 -26.008684 -2.687135 -22.922378 -8.479620 1.394424 36.135102 -4.506878 2.169407 11.348893 -2.661522 -8.269670 0.000000 0.000000 0.000000 -5.848092 -25.347435 -2.236278 -0.893648 0.066982 -0.006948 8.455400 -5.334983 -1.790830 -4.165398 5.597980 -0.276678 0.000000 0.000000 0.000000 -8.674129 1.702237 1.150551 4.974000 -2.288844 -1.117716 0.000000 0.000000 0.000000 -11.479455 1.602932 2.506236 8.085476 -1.725211 -13.180972 19.686151 -31.437373 -32.766962 -17.176327 -27.171684 -25.663370 0.000000 0.000000 0.000000 -6.205865 0.963591 0.233600 8.447765 20.820428 -4.478381 8.325809 -7.091507 90.158531 5.026628 19.156365 -5.732265 0.000000 0.000000 0.000000 
-3.972645 91.436600 9.000065 0.000000 0.000000 0.000000 -4.728216 -29.293855 -3.385776 -26.696698 23.797421 32.973213 34.117229 -6.410519 -8.103087 6.781020 -4.898403 -7.245672 0.000000 0.000000 0.000000 -6.057410 -28.101610 -3.891242 -24.548605 -9.945523 0.620885 36.883513 -3.168134 3.543495 10.264378 1.161530 -3.759679 0.000000 0.000000 0.000000 -5.574692 -27.482420 -3.344760 -0.856174 0.050395 0.029160 8.727033 -6.109032 -1.414681 -4.041808 4.954177 -0.209474 0.000000 0.000000 0.000000 -7.758299 1.342477 0.958657 4.654018 -1.812393 -0.838497 0.000000 0.000000 0.000000 -10.231295 1.300652 2.286545 8.614542 -0.883541 -10.809819 25.419372 -29.657525 -30.033909 -20.231579 -35.041005 -30.278287 0.000000 0.000000 0.000000 -6.820416 0.490645 0.301290 10.388130 20.541574 -3.756831 3.331469 -2.476668 85.162391 3.914471 16.839797 -2.715031 0.000000 0.000000 0.000000 
-3.374388 90.787033 9.060516 0.000000 0.000000 0.000000 -5.407570 -31.535424 -5.318021 -30.242527 26.927505 38.198215 38.305620 -4.634103 -7.717454 2.999143 -2.256377 -7.225887 0.000000 0.000000 0.000000 -6.144185 -30.806257 -5.574710 -27.357382 -10.955844 -1.038692 37.849637 -0.476554 4.458301 14.303145 7.262590 2.858315 0.000000 0.000000 0.000000 -5.302035 -30.572156 -4.891628 -0.821756 0.010241 0.041021 8.747592 -7.371779 -0.965472 -3.803751 3.963643 -0.281112 0.000000 0.000000 0.000000 -6.585909 0.717543 0.542069 4.429275 -1.116413 -0.409776 0.000000 0.000000 0.000000 -8.587568 0.703207 1.804528 9.385652 0.122577 -7.355934 34.163196 -26.964342 -27.592042 -29.806635 -49.285300 -41.997706 0.000000 0.000000 0.000000 -7.334464 -0.223030 0.183678 12.847716 20.099541 -1.987786 -2.202203 3.640426 79.080115 2.904142 15.522841 0.903398 0.000000 0.000000 0.000000 
-2.589366 90.299286 8.843243 0.000000 0.000000 0.000000 -6.155003 -34.614521 -7.287732 -33.650812 30.356257 43.755274 41.702734 -2.542610 -7.363234 -1.338237 0.600482 -7.187718 0.000000 0.000000 0.000000 -6.413032 -34.244864 -7.307063 -30.390025 -10.898798 -3.392965 39.574031 1.926518 4.085880 18.050566 12.682325 6.637802 0.000000 0.000000 0.000000 -5.117088 -34.504299 -6.527003 -0.805383 -0.054844 0.007853 8.627670 -8.870245 -0.533958 -3.423451 2.737305 -0.616003 0.000000 0.000000 0.000000 -5.314999 -0.125953 -0.106850 4.356446 -0.244714 0.068326 0.000000 0.000000 0.000000 -6.769496 -0.168393 1.138402 10.301520 1.005881 -3.073642 44.083164 -23.897188 -26.956708 -60.015390 -64.290255 -74.574751 0.000000 0.000000 0.000000 -7.665365 -1.062742 -0.202866 15.422670 18.991696 0.425375 -7.858917 10.068909 72.341491 1.934752 16.626504 4.884259 0.000000 0.000000 0.000000 
-1.602861 90.017105 8.608860 0.000000 0.000000 0.000000 -6.802065 -38.739607 -8.947543 -35.264137 33.885180 47.995483 43.393476 -0.806795 -6.842743 -6.553530 2.846990 -8.054505 0.000000 0.000000 0.000000 -6.837076 -38.646419 -8.775043 -32.635522 -9.732674 -6.184811 43.024294 2.880418 2.258912 16.824549 14.922025 6.304401 0.000000 0.000000 0.000000 -5.261542 -39.145156 -8.059011 -0.772288 -0.108973 -0.011968 8.394474 -10.282976 0.021753 -2.730170 1.454681 -1.215801 0.000000 0.000000 0.000000 -4.117131 -1.047643 -0.950973 4.514748 0.734062 0.519322 0.000000 0.000000 0.000000 -4.925325 -1.208850 0.348206 11.256239 1.733773 1.738506 53.358104 -21.371356 -28.835822 -111.959539 -63.399612 -128.496772 0.000000 0.000000 0.000000 -7.631597 -1.951869 -0.840924 17.816195 16.833852 2.810556 -12.855063 15.822944 65.149582 0.803695 20.685129 9.212138 0.000000 0.000000 0.000000 
-0.478130 89.967522 8.499657 0.000000 0.000000 0.000000 -7.178921 -43.965569 -10.133357 -34.519643 37.102435 50.192427 43.030096 -0.125089 -6.165672 -12.526039 3.584002 -11.077453 0.000000 0.000000 0.000000 -7.281045 -43.677762 -9.865043 -33.599357 -8.003486 -9.210054 47.667641 2.326703 -0.381525 10.887277 14.711070 3.759202 0.000000 0.000000 0.000000 -5.819478 -44.117134 -9.380208 -0.724359 -0.100553 -0.010468 8.166682 -11.296930 0.881879 -1.717286 0.309284 -1.895986 0.000000 0.000000 0.000000 -3.116109 -1.894301 -1.919081 4.909624 1.737937 0.880840 0.000000 0.000000 0.000000 -3.231971 -2.148564 -0.458549 12.137559 2.539366 6.564368 60.253716 -19.726812 -33.399717 -136.130888 -51.491512 -154.002311 0.000000 0.000000 0.000000 -7.258885 -2.724746 -1.609254 19.844877 13.839008 4.709376 -16.338284 20.772873 57.767602 -0.919848 26.803725 13.960088 0.000000 0.000000 0.000000 
0.584881 89.890251 8.307816 0.000000 0.000000 0.000000 -7.332212 -49.565768 -10.810210 -33.255119 39.501726 51.257117 42.374480 -0.529763 -5.618527 -17.685767 3.243181 -15.349132 0.000000 0.000000 0.000000 -7.709579 -48.625524 -10.664167 -33.377833 -6.535194 -12.658186 52.689189 0.917565 -2.917285 2.756479 13.618339 0.477154 0.000000 0.000000 0.000000 -6.730387 -48.860803 -10.537308 -0.679801 -0.050499 0.017020 7.954763 -11.742956 1.967214 -0.627072 -0.580864 -2.487127 0.000000 0.000000 0.000000 -2.435107 -2.507108 -2.892718 5.454470 2.661255 1.124182 0.000000 0.000000 0.000000 -1.789151 -2.785294 -1.203289 12.820545 3.294103 10.519354 63.544330 -18.761398 -39.704901 -143.581764 -43.072857 -162.079323 0.000000 0.000000 0.000000 -6.648734 -3.220753 -2.389161 21.347136 10.431528 5.700674 -17.318189 25.070291 50.858091 -3.317621 33.158065 18.919977 0.000000 0.000000 0.000000 
1.460131 89.541107 7.848583 0.000000 0.000000 0.000000 -7.376439 -54.626480 -11.074335 -33.653046 40.568076 52.630549 43.766541 -1.437013 -5.330099 -20.065568 2.437789 -18.658841 0.000000 0.000000 0.000000 -8.166690 -53.182510 -11.280693 -32.420879 -6.383922 -17.075792 57.571412 -0.434409 -4.627321 -4.157129 12.450392 -2.596770 0.000000 0.000000 0.000000 -7.829182 -53.076502 -11.483004 -0.655255 0.016158 0.063384 7.639347 -11.614452 2.930937 0.396041 -1.117759 -2.916962 0.000000 0.000000 0.000000 -2.024856 -2.661368 -3.706056 6.128401 3.411750 1.247787 0.000000 0.000000 0.000000 -0.742363 -2.958771 -1.858044 13.207769 4.048945 12.937258 62.893577 -17.874598 -46.054207 -145.121904 -40.482436 -163.485837 0.000000 0.000000 0.000000 -5.862532 -3.259003 -3.065450 22.186396 7.087979 5.569157 -15.432770 28.361867 45.129611 -5.924982 37.894364 23.514962 0.000000 0.000000 0.000000 
1.971133 88.949112 7.184532 0.000000 0.000000 0.000000 -7.642642 -58.698495 -11.168752 -36.245461 39.834012 54.705499 48.099917 -2.339090 -5.022329 -18.843734 1.178969 -19.412769 0.000000 0.000000 0.000000 -8.697522 -56.969976 -11.604744 -30.743655 -8.025206 -22.155657 61.087129 -1.292567 -5.218352 -8.588977 11.054662 -5.178087 0.000000 0.000000 0.000000 -8.896133 -56.599828 -12.026203 -0.665725 0.076134 0.084370 7.126307 -10.983827 3.232868 1.248765 -1.154420 -3.184366 0.000000 0.000000 0.000000 -1.773173 -2.273110 -4.277604 6.893660 3.928880 1.244953 0.000000 0.000000 0.000000 -0.200141 -2.583776 -2.407015 13.296112 4.730849 13.479628 58.896188 -16.374410 -50.757308 -143.586805 -42.849844 -161.229566 0.000000 0.000000 0.000000 -5.038270 -2.746790 -3.511892 22.239750 4.365116 4.419849 -11.575409 30.553198 41.103938 -7.899600 39.873272 26.726209 0.000000 0.000000 0.000000 
2.057998 88.216003 6.151451 0.000000 0.000000 0.000000 -8.463258 -61.846106 -11.294210 -40.445436 36.917538 56.884466 54.916531 -2.940015 -4.382920 -13.720419 -0.190144 -16.826565 0.000000 0.000000 0.000000 -9.198175 -60.135171 -11.495926 -28.589881 -11.277278 -27.080025 61.894423 -1.800679 -4.623198 -12.218892 9.158130 -7.083987 0.000000 0.000000 0.000000 -9.645544 -59.580348 -12.017193 -0.691097 0.129999 0.090048 6.404814 -9.919875 2.484143 1.903923 -0.685789 -3.310634 0.000000 0.000000 0.000000 -1.685917 -1.354230 -4.549737 7.660771 4.153088 1.155982 0.000000 0.000000 0.000000 -0.108457 -1.751388 -2.820867 13.138458 5.150052 12.280069 52.390857 -14.370595 -52.429772 -138.193879 -49.373890 -154.657585 0.000000 0.000000 0.000000 -4.255403 -1.735804 -3.664580 21.463250 2.520324 2.598238 -6.873276 31.349800 39.018962 -8.691000 39.364115 27.852974 0.000000 0.000000 0.000000 
1.727127 87.480812 5.067722 0.000000 0.000000 0.000000 -9.526456 -64.527734 -11.298772 -45.071022 32.308349 58.256541 62.700679 -3.150099 -3.366403 -5.804974 -0.785160 -11.828305 0.000000 0.000000 0.000000 -9.295502 -63.024218 -10.773292 -27.281418 -15.137415 -31.453544 60.218964 -1.928590 -3.169347 -15.841471 7.094564 -7.690131 0.000000 0.000000 0.000000 -9.559490 -62.228754 -11.075187 -0.721437 0.148044 0.067960 5.654691 -8.386490 0.634718 2.305531 0.199338 -3.350207 0.000000 0.000000 0.000000 -1.794424 -0.047294 -4.538398 8.259473 4.081199 1.042495 0.000000 0.000000 0.000000 -0.470648 -0.543914 -3.016865 12.761686 5.396597 9.683282 44.132909 -12.115921 -50.977964 -124.996492 -58.560539 -139.849052 0.000000 0.000000 0.000000 -3.574434 -0.377109 -3.611166 19.967296 1.662052 0.842366 -2.299005 30.420788 38.946377 -8.604269 37.485820 27.154822 0.000000 0.000000 0.000000 
1.138234 86.748871 4.174686 0.000000 0.000000 0.000000 -10.153542 -67.218173 -10.771583 -48.963160 27.165411 58.217937 69.198525 -3.445543 -2.118615 1.992231 -0.746011 -7.103342 0.000000 0.000000 0.000000 -8.794178 -65.911209 -9.296576 -27.653134 -17.832683 -35.007387 57.398205 -1.498218 -1.432201 -17.919356 5.266471 -6.362880 0.000000 0.000000 0.000000 -8.586741 -64.943440 -9.191368 -0.755410 0.125473 0.026253 5.212494 -6.428778 -2.106787 2.424315 1.396690 -3.328141 0.000000 0.000000 0.000000 -2.099264 1.402566 -4.329346 8.529194 3.744527 0.957400 0.000000 0.000000 0.000000 -1.192961 0.866176 -3.008516 12.220970 5.476736 6.035789 34.808652 -10.139655 -47.305013 -94.239515 -66.017344 -107.128710 0.000000 0.000000 0.000000 -3.111615 1.106911 -3.462597 18.001855 1.948382 -0.171737 1.612319 27.623775 40.559265 -8.145034 35.286554 25.196288 0.000000 0.000000 0.000000 
